<svg width="130" height="70" viewBox="0 0 130 70" fill="none" xmlns="http://www.w3.org/2000/svg">
<path fill-rule="evenodd" clip-rule="evenodd" d="M84.1813 20.1093C80.3745 20.1583 76.5721 20.142 72.7683 20.1256H72.7681H72.7679H72.7677H72.7675H72.7673H72.7672H72.767C70.8649 20.1175 68.9625 20.1093 67.0589 20.1093C64.6143 20.1093 64.2086 19.4481 65.1925 17.1285C65.4831 16.5994 65.6418 16.0038 65.6542 15.3954C65.6666 14.787 65.5323 14.185 65.2635 13.6438C63.8519 11.1255 62.4294 8.60717 61.0068 6.08886L61.0066 6.08849L61.0064 6.08812L61.0062 6.08775L61.006 6.08737L61.0058 6.087L61.0057 6.08682L61.0056 6.08663L61.0055 6.08642L61.0054 6.08621L61.0049 6.08538L61.0044 6.08454L61.004 6.0837L61.0034 6.08266C60.0555 4.40464 59.1076 2.72662 58.163 1.0486C57.7369 0.313885 57.1486 0.261405 56.5197 0.817692C56.0204 1.3091 55.6144 1.89295 55.3228 2.53903L35.279 38.3933C34.8422 39.182 34.4047 39.97 33.9673 40.7578L33.9631 40.7653L33.9622 40.7669C32.8063 42.8486 31.6509 44.9293 30.5115 47.021C29.5986 48.6794 30.2173 49.7605 32.0026 49.7395C35.9442 49.6835 39.8858 49.7022 43.8304 49.7208H43.8308H43.831H43.8311H43.8313H43.8315H43.8316H43.8318H43.8319C45.8051 49.7301 47.7789 49.7395 49.7539 49.7395H67.3226C68.2777 49.7799 69.2244 49.5403 70.0535 49.0482C70.8827 48.556 71.5605 47.8315 72.009 46.958C74.7478 42.0984 77.446 37.2073 80.1239 32.3161C81.9227 29.1044 83.7113 25.8891 85.4898 22.6703C86.3926 21.0959 85.6826 20.0778 84.1813 20.1093ZM63.6514 29.5439L63.6506 29.5453C62.8899 30.9123 62.1291 32.2794 61.3785 33.6491L55.5561 44.0612C55.15 44.8865 54.5515 45.5942 53.8148 46.1201C53.078 46.6461 52.2262 46.9737 51.3363 47.0735C49.8655 47.0735 49.3076 46.0239 49.9467 44.7539C50.8162 43.1074 51.6857 41.5071 52.5553 39.9068L52.9897 39.107C53.8576 37.5458 54.728 35.9872 55.5982 34.429C57.1793 31.5977 58.7599 28.7675 60.3236 25.9241C60.6944 25.1795 61.2148 24.5255 61.8499 24.006C62.4849 23.4864 63.2199 23.1134 64.0057 22.9117C64.3327 22.7001 64.7237 22.6211 65.1036 22.6899C65.4835 22.7587 65.8254 22.9705 66.0634 23.2846C66.3014 23.5986 66.4187 23.9926 66.3928 24.3908C66.3668 24.789 66.1994 25.1632 65.9228 25.4413C65.1724 26.8106 64.4119 28.1772 63.6514 29.5439ZM45.8892 3.77755C46.0876 3.75583 46.2883 3.78252 46.475 3.85546C46.6617 3.9284 46.8293 4.04557 46.9644 4.19759C47.0995 4.34961 47.1983 4.53225 47.2529 4.73089C47.3075 4.92952 47.3164 5.13862 47.2788 5.34145C47.2378 5.86738 47.0743 6.37519 46.8021 6.82138C45.8892 8.43077 44.9898 10.0402 44.1039 11.6495C43.8848 12.0148 43.7174 12.4107 43.6068 12.8251C43.3228 14.0111 43.8401 14.6829 45.027 14.7354C45.5345 14.6799 46.0471 14.7707 46.5079 14.9978C47.0861 15.3441 47.1571 15.785 46.7108 16.2783C46.4274 16.5802 46.0884 16.8203 45.7138 16.9844C45.3392 17.1484 44.9367 17.2331 44.5299 17.2334C41.6897 17.3384 40.016 18.9233 38.6466 21.4318C30.4573 36.2801 22.2174 51.111 13.9267 65.9243C13.7952 66.1579 13.6669 66.394 13.5387 66.6301C13.2119 67.2318 12.8854 67.833 12.5065 68.3908C11.6342 69.6713 10.8126 69.6189 10.0619 68.2859C9.08655 66.5642 8.11501 64.8425 7.14396 63.1217L7.14168 63.1176L7.13689 63.1091L7.13589 63.1073L7.13544 63.1066L7.13533 63.1064L7.13521 63.1062C5.87741 60.8772 4.62043 58.6496 3.35701 56.4254C2.44409 54.809 2.88026 53.2766 3.66132 51.8387C4.82835 49.5985 6.08703 47.3949 7.34919 45.1852L7.34923 45.1851L7.34924 45.1851L7.34931 45.1849C7.60104 44.7442 7.85291 44.3033 8.10422 43.8617C12.3916 36.1647 16.6857 28.4676 20.9866 20.7705C21.3213 20.1618 21.2706 20.0148 20.5504 20.0148H3.144C2.84664 20.0303 2.54872 20.0303 2.25136 20.0148C0.750107 19.7944 0.374794 19.0387 1.09499 17.7162C1.76386 16.4912 2.44707 15.2753 3.13043 14.0591L3.13048 14.059L3.13051 14.059C4.51979 11.5865 5.90972 9.1128 7.18115 6.55898C7.61126 5.63513 8.29946 4.86613 9.15667 4.35152C10.0139 3.83692 11.0006 3.6004 11.9892 3.67259C15.1014 3.66683 23.3103 3.69901 31.0163 3.72922L31.0166 3.72922C37.3506 3.75405 43.3448 3.77755 45.8892 3.77755ZM99.1836 49.708H105.27C107.258 49.708 109.236 49.6975 111.244 49.666C112.179 49.6936 113.103 49.4533 113.914 48.9717C114.725 48.4901 115.391 47.786 115.839 46.937C116.962 44.9691 118.064 43.0011 119.166 41.0331C119.828 39.8523 120.489 38.6715 121.155 37.4906L121.843 36.2487C124.302 31.812 126.765 27.3688 129.27 22.9432C130.335 21.0539 129.503 20.1093 127.697 20.1093C116.039 20.1513 104.381 20.1513 92.7221 20.1093C91.6849 20.0598 90.6557 20.3194 89.7567 20.857C88.8577 21.3947 88.1267 22.1879 87.6503 23.1426L77.7603 40.8389C77.3557 41.5677 76.9486 42.2873 76.5416 43.0066L76.5415 43.0067C75.8057 44.3071 75.0705 45.6064 74.3521 46.958C73.4087 48.6584 74.0376 49.708 75.8838 49.708C78.5481 49.666 81.2125 49.68 83.8769 49.694C85.2091 49.701 86.5413 49.708 87.8735 49.708C88.8091 49.7345 89.7336 49.4927 90.5446 49.0092C91.3556 48.5257 92.0215 47.8194 92.4686 46.9685C96.411 39.8662 100.384 32.7604 104.387 25.6512C105 24.4981 105.983 23.6033 107.167 23.1216L107.191 23.1118C108.057 22.7573 109.02 22.3633 109.774 23.2161C110.509 24.0479 110.012 24.9581 109.566 25.7762L109.52 25.8611L101.273 40.6709C100.929 41.2891 100.583 41.9056 100.237 42.5219C99.3777 44.0504 98.5196 45.5775 97.7027 47.1259C96.8404 48.7318 97.4288 49.708 99.1836 49.708ZM52.1579 63.9405C51.9347 63.6886 51.9449 63.4997 52.2999 63.3002C52.6764 63.0668 52.9859 62.7337 53.1963 62.3351C53.4067 61.9365 53.5105 61.487 53.4968 61.0331C53.5882 59.6703 53.5882 58.3025 53.4968 56.9397C53.3447 54.7145 52.4318 53.7909 50.2712 53.7279H40.442C39.7928 53.7279 39.732 53.9903 39.732 54.5466V61.5474V68.6322C39.732 69.2095 39.874 69.3669 40.4319 69.3564H45.2095C45.6863 69.3564 45.8384 69.2095 45.8181 68.7162V65.6409C45.8181 65.5754 45.8036 65.4995 45.7886 65.4209C45.7434 65.1846 45.6937 64.9246 46.021 64.8537C46.4073 64.77 46.5629 65.0321 46.7203 65.2973L46.7203 65.2975C46.7406 65.3317 46.7609 65.3659 46.7818 65.3994C47.0406 65.8168 47.2005 66.2915 47.2484 66.7849C47.3295 67.4357 47.4005 68.0864 47.4208 68.7372C47.4208 69.199 47.5831 69.3774 48.0599 69.3564H52.8375C53.3447 69.3564 53.5171 69.22 53.4867 68.6742L53.4821 68.5879C53.3927 66.9171 53.3047 65.2716 52.1579 63.9405ZM47.5121 59.2593C47.5121 60.0675 47.0557 60.3089 46.3456 60.3089C45.8351 60.3089 45.8489 59.9779 45.8631 59.6397C45.8686 59.5076 45.8742 59.3743 45.8486 59.2593C45.8283 59.0745 45.8283 58.8878 45.8486 58.703V57.9578C45.8486 57.9206 45.8446 57.8748 45.8402 57.8237V57.8236C45.8146 57.5284 45.7738 57.0582 46.3963 57.0761C47.1267 57.0971 47.4817 57.2021 47.502 57.9578C47.5223 58.3881 47.5223 58.8185 47.5121 59.2593ZM98.8996 57.1392V61.3376C98.8996 61.642 98.9005 61.9464 98.9013 62.2507C98.9045 63.4683 98.9078 64.6858 98.8591 65.9034C98.8185 68.2544 97.794 69.304 95.532 69.304H88.2387C86.21 69.2516 85.1956 68.4119 85.0739 66.3547C84.9725 63.1009 84.9826 59.8367 85.0739 56.5724C85.1348 54.7881 86.2506 53.7385 88.117 53.7385C88.9788 53.7385 89.835 53.7315 90.6882 53.7244H90.6884C92.3857 53.7105 94.071 53.6966 95.7653 53.7385C97.9461 53.791 98.8996 54.8616 98.8996 57.1392ZM91.9614 65.9663C92.641 65.9663 92.8135 65.494 92.8135 64.9167H92.7831C92.7932 64.3918 92.7957 63.8668 92.7983 63.3392V63.3387V63.3381V63.3376V63.3371V63.336C92.8008 62.8098 92.8034 62.281 92.8135 61.7469V58.5037L92.8124 58.4448C92.8037 57.9283 92.795 57.4106 92.0426 57.3701C91.2615 57.3281 91.2006 57.9474 91.2006 58.5142V64.9167C91.2006 65.4835 91.2818 65.9663 91.9614 65.9663ZM61.6726 53.728C63.1077 53.6606 64.5458 53.7097 65.9735 53.8749C66.5632 53.9544 67.1045 54.2545 67.495 54.7186C67.8856 55.1827 68.0985 55.7786 68.0935 56.394C68.1216 56.7477 68.1238 57.1037 68.1259 57.4609C68.1284 57.8773 68.131 58.2955 68.1747 58.7136C68.1747 59.1859 68.0326 59.3853 67.5559 59.3748H62.687C62.2406 59.3748 62.1189 59.1964 62.1392 58.7661C62.1595 58.4585 62.1595 58.1499 62.1392 57.8424C62.1392 57.3701 61.916 57.0762 61.4292 57.0657C60.9423 57.0552 60.6785 57.4016 60.6684 57.8949V60.7813V64.9797C60.6684 65.473 60.7495 65.9453 61.3784 65.9453C62.0073 65.9453 62.1088 65.5045 62.1595 65.0007C62.1696 64.8469 62.1696 64.6926 62.1595 64.5389C62.1595 63.691 62.1595 63.2659 62.372 63.0528C62.5857 62.8385 63.0143 62.8385 63.8737 62.8385H63.8738H67.5762C68.0326 62.8385 68.2152 62.9645 68.1848 63.4683V66.2602C67.9515 68.2754 67.1096 69.2516 65.1924 69.2516C62.643 69.3215 60.0902 69.3215 57.534 69.2516C57.1539 69.2918 56.7699 69.2461 56.4085 69.1176C56.0471 68.9891 55.7171 68.7808 55.4412 68.5073C55.1653 68.2338 54.9501 67.9015 54.8105 67.5335C54.671 67.1654 54.6104 66.7703 54.6329 66.3757C54.5315 63.1219 54.4706 59.8577 54.6329 56.5934C54.7648 54.6411 55.7792 53.749 57.8079 53.728C58.5803 53.7143 59.3569 53.7185 60.2134 53.723H60.2135H60.2136H60.2137C60.6731 53.7254 61.1556 53.728 61.6726 53.728ZM115.058 64.014V64.3814C115.054 64.496 115.054 64.6168 115.053 64.7401V64.7402C115.05 65.2155 115.047 65.7274 114.845 66.0607C114.661 66.3664 114.218 66.316 113.815 66.27C113.664 66.2528 113.519 66.2363 113.395 66.2392C112.938 66.2497 112.938 66.4491 112.938 66.8269C112.938 67.0569 112.962 67.3142 112.985 67.5744C113.047 68.2526 113.111 68.9499 112.766 69.2305C112.426 69.5078 111.811 69.4534 111.203 69.3995C110.96 69.378 110.717 69.3565 110.494 69.3565H107.451L107.438 69.3568C107.072 69.3671 106.933 69.371 106.933 68.8317C106.933 68.6511 106.926 68.467 106.918 68.2818V68.2815V68.2813C106.902 67.9069 106.886 67.5278 106.933 67.1628C107.025 66.4281 106.822 66.2077 106.071 66.2077H100.492C99.9242 66.2182 99.7112 66.0817 99.7112 65.4415C99.6215 63.9283 99.9226 62.4177 100.584 61.0646C101.354 59.5917 102.012 58.085 102.672 56.574C102.986 55.8561 103.3 55.1373 103.627 54.4207C103.686 54.1961 103.82 54.0008 104.006 53.8699C104.192 53.7391 104.417 53.6813 104.641 53.707H112.391C112.908 53.707 113.05 53.8539 113.05 54.3892V58.2097C113.05 58.6265 113.057 59.0422 113.064 59.457V59.4575V59.458C113.077 60.286 113.091 61.1109 113.05 61.9358C113.02 62.4816 113.182 62.5551 113.648 62.5551C115.058 62.5551 115.058 62.5656 115.058 64.014ZM108.323 60.4244V59.1334V59.1124C108.32 59.0733 108.331 59.0312 108.343 58.9899L108.343 58.9898C108.368 58.8978 108.392 58.8095 108.252 58.766C108.049 58.703 107.958 58.871 107.887 59.0284C107.663 59.509 107.445 59.9928 107.227 60.478L107.227 60.479C107.049 60.873 106.872 61.2679 106.69 61.6629C106.568 61.9253 106.589 62.1247 106.923 62.1247C108.049 62.3347 108.323 62.1142 108.323 60.9387V60.4244ZM84.0697 65.305C84.0392 64.8087 84.0392 64.3109 84.0697 63.8146C84.0697 63.5991 84.0784 63.4183 84.0858 63.2672V63.2671C84.1224 62.5128 84.1233 62.4939 82.822 62.5551C82.2337 62.5551 82.0511 62.4396 82.0612 61.7994V54.4522C82.0612 53.8854 81.9192 53.6965 81.3613 53.7175H77.4865H73.8043C73.5564 53.6677 73.2994 53.7154 73.0837 53.8513C72.868 53.9872 72.709 54.2014 72.6378 54.4522C72.3287 55.2086 71.9912 55.9503 71.6538 56.6915C71.2937 57.4828 70.9338 58.2734 70.6091 59.0809C70.4284 59.5134 70.2277 59.9391 70.0269 60.3649C69.292 61.9232 68.5566 63.4825 68.8035 65.3785C68.905 66.0712 69.0571 66.2497 69.6962 66.2182H73.571C73.7965 66.2182 74.0416 66.1884 74.2885 66.1583C74.9081 66.083 75.5385 66.0063 75.8939 66.3966C76.2509 66.7886 76.1841 67.3755 76.118 67.9551C76.0921 68.1825 76.0664 68.4088 76.0664 68.6218C76.0664 69.3541 76.2378 69.3472 76.7377 69.327L76.7866 69.325H80.205C82.1221 69.325 82.1728 69.325 82.1018 67.3622C82.1018 66.4281 82.2743 66.0293 83.2075 66.2077C83.8262 66.3126 84.1813 66.1027 84.0697 65.305ZM76.0664 60.6553C76.0392 61.0712 76.0392 61.4885 76.0664 61.9043C76.1272 62.4501 75.8939 62.5656 75.407 62.5761C75.3415 62.5761 75.2792 62.5762 75.2202 62.5764C74.6909 62.5778 74.422 62.5785 74.339 62.4546C74.2532 62.3266 74.3659 62.0656 74.5952 61.5349L74.626 61.4635C74.699 61.3005 74.771 61.137 74.8432 60.9732L74.8432 60.9731C75.0917 60.409 75.3417 59.8415 75.6403 59.2803C75.7113 59.1124 75.8026 58.9235 76.0258 59.0074C76.1909 59.0696 76.1672 59.1776 76.1437 59.2849C76.1355 59.3227 76.1272 59.3603 76.1272 59.3958C76.0664 59.8051 76.0664 60.225 76.0664 60.6553ZM27.9452 54.5257V61.516L27.9959 68.5483C27.9959 68.573 27.9957 68.5974 27.9956 68.6216C27.9936 69.0398 27.9919 69.3775 28.6248 69.3775H38.3626C38.8191 69.3775 39.0118 69.22 39.0118 68.7372V66.3127C39.022 65.8823 38.8495 65.7144 38.4235 65.7144H35.5427C34.0009 65.7144 34.0009 65.7144 34.0009 64.0875C34.0009 63.4892 34.1835 63.3738 34.7211 63.3738H37.7642C38.2206 63.3843 38.3829 63.2583 38.3829 62.744C38.3322 61.9717 38.3322 61.1967 38.3829 60.4244C38.4336 59.8576 38.2815 59.7107 37.7642 59.7107H34.6095C34.1835 59.7212 33.9603 59.6477 33.9603 59.1124C33.9346 58.2279 33.9167 57.7924 34.1256 57.578C34.3282 57.3701 34.7442 57.3701 35.5731 57.3701H36.2933C36.5825 57.3451 36.9009 57.3855 37.2164 57.4255C37.8305 57.5033 38.4335 57.5797 38.7887 57.1707C39.1387 56.7675 39.0759 56.1285 39.0119 55.4767C38.9776 55.1274 38.9429 54.7745 38.9713 54.4522C39.0118 53.8854 38.809 53.707 38.2511 53.707H28.6958C28.077 53.6965 27.9452 53.9484 27.9452 54.5257Z" fill="url(#paint0_linear_50_13)"/>
<defs>
<linearGradient id="paint0_linear_50_13" x1="-30.4415" y1="83.9459" x2="154.51" y2="8.19099" gradientUnits="userSpaceOnUse">
<stop stop-color="white"/>
<stop offset="1"/>
</linearGradient>
</defs>
</svg>
